<?xml version="1.0" standalone="no"?>
<!DOCTYPE svg PUBLIC "-//W3C//DTD SVG 20010904//EN"
 "http://www.w3.org/TR/2001/REC-SVG-20010904/DTD/svg10.dtd">
<svg version="1.0" xmlns="http://www.w3.org/2000/svg"
 width="1024.000000pt" height="1024.000000pt" viewBox="0 0 1024.000000 1024.000000"
 preserveAspectRatio="xMidYMid meet">

<g transform="translate(0.000000,1024.000000) scale(0.100000,-0.100000)"
fill="#4292FF" stroke="none">
<path d="M4790 9475 c-36 -7 -101 -16 -145 -19 -242 -21 -637 -107 -880 -193
-38 -13 -79 -27 -90 -30 -17 -4 -162 -59 -220 -83 -103 -43 -358 -168 -480
-237 -115 -65 -353 -223 -475 -316 -351 -268 -720 -658 -958 -1012 -192 -287
-376 -635 -468 -890 -203 -559 -284 -1007 -284 -1570 0 -333 21 -548 81 -856
53 -270 155 -606 254 -834 125 -288 231 -485 392 -725 157 -233 206 -296 371
-480 57 -63 116 -128 131 -145 15 -16 54 -54 86 -84 33 -30 110 -100 171 -156
61 -55 155 -135 210 -176 92 -70 379 -269 388 -269 3 0 40 -21 83 -46 230
-137 623 -312 838 -374 17 -5 62 -18 100 -30 333 -99 643 -151 1015 -171 186
-10 269 -9 545 7 144 7 432 50 580 84 263 62 390 98 483 136 18 8 41 14 52 14
10 0 22 5 25 10 3 6 13 10 21 10 8 0 34 8 57 19 23 10 68 28 99 39 32 12 66
26 75 31 10 5 97 48 193 96 183 90 278 142 364 198 28 19 98 65 156 103 58 38
114 77 125 87 11 10 65 53 120 96 93 72 299 255 390 346 64 64 276 304 336
380 90 113 228 309 269 381 14 24 40 69 59 101 19 32 43 74 54 93 30 53 157
307 157 314 0 3 13 34 29 68 84 181 171 442 232 693 11 44 24 98 30 120 6 22
14 65 18 95 5 30 16 91 24 135 20 107 45 376 51 555 7 183 -8 521 -28 665 -9
61 -21 144 -27 185 -15 106 -56 299 -91 425 -25 91 -119 386 -130 405 -4 8
-24 58 -44 110 -58 151 -246 525 -322 640 -9 14 -26 40 -37 58 -25 42 -177
259 -203 292 -317 395 -687 744 -1022 966 -24 16 -53 36 -66 44 -195 130 -579
330 -753 391 -31 11 -65 25 -75 31 -39 21 -325 110 -476 147 -238 59 -417 92
-580 106 -41 3 -110 13 -154 21 -102 18 -561 18 -656 -1z m-85 -1965 c358 -70
658 -231 901 -481 271 -281 412 -574 469 -978 43 -303 -18 -658 -164 -950 -51
-101 -132 -234 -150 -246 -17 -10 -13 -37 11 -62 28 -30 38 -29 73 7 16 17 36
30 45 30 9 0 142 -127 295 -282 154 -156 485 -490 736 -743 496 -500 507 -513
517 -632 10 -118 -78 -257 -208 -327 -66 -36 -83 -41 -140 -41 -133 1 -108
-20 -932 803 -406 405 -738 744 -738 753 0 9 14 28 31 43 28 25 29 29 17 48
-35 52 -47 51 -133 -6 -226 -151 -473 -241 -761 -276 -386 -48 -868 89 -1184
338 -81 64 -261 246 -316 320 -146 194 -229 369 -289 607 -48 189 -58 282 -52
475 6 179 29 308 86 479 175 521 594 927 1114 1077 264 77 529 92 772 44z"/>
<path d="M4299 7139 c-285 -23 -555 -143 -782 -348 -92 -83 -209 -250 -278
-397 -158 -334 -158 -755 1 -1090 346 -734 1250 -978 1910 -515 158 110 352
342 429 512 44 98 89 252 106 366 47 316 -31 644 -218 923 -65 96 -231 262
-327 327 -255 171 -539 246 -841 222z m813 -581 c3 -7 2 -40 -3 -73 -4 -33 -8
-121 -8 -195 0 -107 4 -146 19 -190 10 -30 17 -58 14 -61 -2 -4 -23 -17 -47
-28 -171 -84 -486 -420 -697 -743 -35 -54 -69 -98 -75 -98 -6 0 -27 22 -47 48
-55 72 -242 250 -332 316 -44 32 -112 76 -153 98 -40 22 -73 44 -73 49 0 5 10
15 23 22 12 8 74 44 137 82 63 38 137 84 164 103 37 26 54 32 65 25 9 -5 53
-84 100 -174 46 -90 88 -164 94 -164 5 0 35 50 66 110 194 378 399 641 636
818 91 68 109 77 117 55z"/>
</g>
</svg>
